<svg width="512" height="512" viewBox="0 0 512 512" fill="none" xmlns="http://www.w3.org/2000/svg">
<rect width="512" height="512" fill="black"/>
<path d="M70.2081 267.987C63.7465 271.724 58.5137 279.993 58.5137 286.473C58.5137 292.914 63.6672 301.102 70.0893 304.88L164.597 359.583C171.058 363.32 176.291 361.093 176.291 354.614V206.565L70.2479 267.946L70.2081 267.987Z" fill="#B74325"/>
<path d="M318.33 16.4151L70.2081 160.051C63.7465 163.788 58.5137 172.057 58.5137 178.536V286.472C58.5137 279.993 63.7465 271.724 70.2081 267.986L176.251 206.564L318.25 124.351C324.712 120.613 329.945 112.345 329.945 105.864V21.3844C329.945 14.9442 324.751 12.7179 318.33 16.4151Z" fill="#F96217"/>
<path d="M443.304 243.974C449.766 240.237 454.999 231.968 454.999 225.488C454.999 219.047 449.845 210.857 443.424 207.081L348.917 152.378C342.455 148.641 337.223 150.867 337.223 157.347V305.396L443.266 244.014L443.304 243.974Z" fill="#B74325"/>
<path d="M443.305 243.974L337.262 305.396L195.263 387.609C188.801 391.346 183.568 399.615 183.568 406.097V490.616C183.568 497.055 188.762 499.282 195.184 495.585L443.265 351.949C449.727 348.211 454.959 339.942 454.959 333.463V225.527C454.959 232.008 449.727 240.277 443.265 244.014L443.305 243.974Z" fill="#F96217"/>
<path d="M282.075 295.418C287.387 295.418 292.344 293.868 296.545 291.203C301.777 288.102 305.464 283.213 307.367 277.727C308.438 274.825 308.993 271.684 308.993 268.424C308.993 263.692 307.764 259.201 305.623 255.344C299.875 243.854 287.507 234.274 276.368 222.864C263.008 209.189 256.824 197.262 256.824 197.262C256.824 197.262 250.64 209.189 237.28 222.864C226.141 234.274 213.771 243.854 208.023 255.344C205.883 259.241 204.654 263.692 204.654 268.424C204.654 271.684 205.249 274.825 206.279 277.727C208.183 283.252 211.869 288.102 217.102 291.203C221.265 293.868 226.22 295.418 231.571 295.418C240.531 295.418 248.459 291.045 253.374 284.286C251.749 303.09 240.649 314.34 240.649 314.34H272.958C272.958 314.34 261.898 303.171 260.233 284.405C260.233 284.405 260.233 284.326 260.233 284.286C265.148 291.045 273.076 295.457 282.036 295.457L282.075 295.418Z" fill="#F96217"/>
</svg>
