<svg width="1024" height="126" viewBox="0 0 1024 126" fill="none" xmlns="http://www.w3.org/2000/svg">
<path d="M52.8374 3.21831H0V123.929H37.8484V85.564H52.8609C62.6343 85.564 70.9511 83.755 77.8348 80.1134C84.7185 76.4719 89.9106 71.5617 93.4346 65.3594C96.9587 59.157 98.7207 52.2498 98.7207 44.6378C98.7207 32.0217 94.7738 21.9663 86.8799 14.4483C78.986 6.95381 67.6385 3.19482 52.8609 3.19482L52.8374 3.21831ZM48.5616 55.7269H37.8249V33.5723H48.5616C56.4085 33.5723 60.3319 37.2608 60.3319 44.6613C60.3319 52.0619 56.4085 55.7504 48.5616 55.7504V55.7269ZM360.183 3.21831H317.401L282.794 54.0354V3.21831H244.946V123.929H282.794V71.5852L317.917 123.929H362.931L318.599 61.013L360.183 3.21831ZM373.645 123.929H454.111V93.7398H411.493V76.6834H448.989V48.2089H411.493V33.3843H454.111V3.19482H373.645V123.906V123.929ZM544.444 77.7171C552.855 74.9918 559.292 70.5045 563.803 64.2551C568.29 58.0058 570.546 50.8402 570.546 42.7818C570.546 35.2873 568.807 28.5446 565.354 22.5772C561.876 16.6098 556.684 11.8875 549.754 8.43393C542.823 4.95685 534.459 3.2418 524.686 3.2418H468.442V123.953H506.29V80.6538H506.455L529.126 123.953H570.71L544.468 77.7406L544.444 77.7171ZM529.455 52.9076C527.646 54.5522 524.897 55.3745 521.279 55.3745H506.267V34.9114H521.279C524.803 34.9114 527.505 35.8277 529.385 37.6367C531.264 39.4457 532.204 41.9596 532.204 45.1312C532.204 48.6553 531.288 51.2396 529.479 52.8841L529.455 52.9076Z" fill="#EA611E"/>
<path d="M658.485 3.07781H620.66V123.718H694.947V95.0794H658.485V3.05431V3.07781ZM775.367 71.0688C775.367 76.6368 774.051 81.0301 771.443 84.2723C768.835 87.5144 764.794 89.1355 759.344 89.1355C753.893 89.1355 749.946 87.5144 747.503 84.2723C745.06 81.0301 743.838 76.6368 743.838 71.0688V38.3889H706.177V71.0688C706.177 82.6512 708.386 92.4951 712.826 100.553C717.266 108.612 723.422 114.697 731.316 118.785C739.21 122.873 748.278 124.917 758.498 124.917C768.718 124.917 777.974 122.873 786.268 118.785C794.561 114.697 801.092 108.588 805.861 100.459C810.631 92.3307 813.027 82.5338 813.027 71.0688V38.3889H775.367V71.0688ZM867.204 3.07781H829.379V123.718H903.666V95.0794H867.204V3.05431V3.07781ZM984.061 71.0688C984.061 76.6368 982.746 81.0301 980.138 84.2723C977.53 87.5144 973.489 89.1355 968.039 89.1355C962.588 89.1355 958.641 87.5144 956.198 84.2723C953.755 81.0301 952.533 76.6368 952.533 71.0688V38.3889H914.872V71.0688C914.872 82.6512 917.081 92.4951 921.521 100.553C925.961 108.612 932.117 114.697 940.011 118.785C947.905 122.873 956.973 124.917 967.193 124.917C977.413 124.917 986.669 122.873 994.963 118.785C1003.26 114.697 1009.79 108.588 1014.56 100.459C1019.33 92.3307 1021.72 82.5338 1021.72 71.0688V38.3889H984.061V71.0688ZM815.259 1.5977C815.259 1.5977 784.952 -3.24202 775.507 23.4939C775.507 23.4939 800.716 18.8186 814.601 32.2806C814.601 32.2806 809.832 18.5132 795.383 15.5295C795.383 15.5295 800.199 4.88683 815.259 1.5977ZM725.325 31.5523C733.806 31.5523 740.666 24.6921 740.666 16.2108C740.666 7.72957 733.806 0.869385 725.325 0.869385C716.844 0.869385 709.983 7.72957 709.983 16.2108C709.983 24.6921 716.844 31.5523 725.325 31.5523ZM1004.13 15.5295C1004.13 15.5295 1008.94 4.88683 1024 1.5977C1024 1.5977 993.694 -3.24202 984.249 23.4939C984.249 23.4939 1009.46 18.8186 1023.34 32.2806C1023.34 32.2806 1018.57 18.5132 1004.13 15.5295ZM934.067 31.5523C942.548 31.5523 949.408 24.6921 949.408 16.2108C949.408 7.72957 942.548 0.869385 934.067 0.869385C925.585 0.869385 918.725 7.72957 918.725 16.2108C918.725 24.6921 925.585 31.5523 934.067 31.5523Z" fill="#EA611E"/>
<path d="M169.389 0C134.665 0 106.52 28.1455 106.52 62.8693C106.52 97.5931 134.665 125.739 169.389 125.739C204.113 125.739 232.258 97.5931 232.258 62.8693C232.258 28.1455 204.113 0 169.389 0ZM202.069 31.1762C193.752 32.9852 191.097 38.8587 191.097 38.8587C199.085 40.5033 201.716 48.0918 201.716 48.0918C194.057 40.6677 180.125 43.252 180.125 43.252C185.341 28.4979 202.092 31.1762 202.092 31.1762H202.069ZM146.764 30.7768C150.97 30.7768 154.4 34.6533 154.4 39.4226C154.4 44.1918 150.993 48.0683 146.764 48.0683C142.535 48.0683 139.129 44.1918 139.129 39.4226C139.129 34.6533 142.535 30.7768 146.764 30.7768ZM204.183 76.6132C204.183 86.5511 201.035 94.0926 194.715 99.2847C188.395 104.477 179.914 107.061 169.271 107.061C158.629 107.061 150.288 104.477 144.016 99.2847C137.743 94.0926 134.595 86.5511 134.595 76.6132V58.9224H152.05V76.6132C152.05 82.4397 153.554 86.7625 156.585 89.5348C159.592 92.307 163.821 93.6932 169.271 93.6932C174.722 93.6932 179.139 92.307 182.169 89.5348C185.2 86.7625 186.727 82.4397 186.727 76.6132V58.9224H204.183V76.6132Z" fill="#EA611E"/>
</svg>
